<?xml version="1.0" standalone="no"?>
<svg xmlns="http://www.w3.org/2000/svg" xmlns:xlink="http://www.w3.org/1999/xlink" width="312pt" height="293pt" viewBox="0.00 0.00 311.52 292.59">
<g id="graph0" class="graph" transform="translate(4,288.5899963378906) scale(1)" data-name="">
<!-- i1 -->
<g id="node1" class="node" pointer-events="visible" data-name="i1">

<ellipse fill="lightsalmon" stroke="lightsalmon" cx="58.33" cy="-243.3" rx="58.15" ry="41.09" style=""/>
<text text-anchor="middle" x="58.33" y="-255.9" font-family="Times,serif" font-size="14.00" style="">Input</text>
<text text-anchor="middle" x="58.33" y="-239.1" font-family="Times,serif" font-size="14.00" style="">Linear</text>
<text text-anchor="middle" x="58.33" y="-222.3" font-family="Times,serif" font-size="14.00" style="">(128 nodes)</text>
</g>
<!-- h1 -->
<g id="node2" class="node" pointer-events="visible" data-name="h1">

<ellipse fill="lightslategrey" stroke="lightslategrey" cx="245.19" cy="-243.3" rx="58.15" ry="41.09" style=""/>
<text text-anchor="middle" x="245.19" y="-255.9" font-family="Times,serif" font-size="14.00" style="">Hidden</text>
<text text-anchor="middle" x="245.19" y="-239.1" font-family="Times,serif" font-size="14.00" style="">Linear</text>
<text text-anchor="middle" x="245.19" y="-222.3" font-family="Times,serif" font-size="14.00" style="">(128 nodes)</text>
</g>
<!-- i1&#45;&gt;h1 -->
<g id="edge1" class="edge" data-name="i1-&gt;h1">

<path fill="none" stroke="black" d="M116.81,-243.3C135.33,-243.3 156.04,-243.3 175.3,-243.3" style=""/>
<polygon fill="black" stroke="black" points="175.24,-246.8 185.24,-243.3 175.24,-239.8 175.24,-246.8" style=""/>
<text text-anchor="middle" x="151.76" y="-247.5" font-family="Times,serif" font-size="14.00" style="">ReLU</text>
</g>
<!-- h2 -->
<g id="node3" class="node" pointer-events="visible" data-name="h2">

<ellipse fill="lightslategrey" stroke="lightslategrey" cx="58.33" cy="-142.3" rx="53.25" ry="41.09" style=""/>
<text text-anchor="middle" x="58.33" y="-154.9" font-family="Times,serif" font-size="14.00" style="">Hidden</text>
<text text-anchor="middle" x="58.33" y="-138.1" font-family="Times,serif" font-size="14.00" style="">Linear</text>
<text text-anchor="middle" x="58.33" y="-121.3" font-family="Times,serif" font-size="14.00" style="">(64 nodes)</text>
</g>
<!-- h1&#45;&gt;h2 -->
<g id="edge2" class="edge" data-name="h1-&gt;h2">

<path fill="none" stroke="black" d="M198.64,-218.41C172.42,-204.08 139.34,-186.01 111.99,-171.07" style=""/>
<polygon fill="black" stroke="black" points="113.99,-168.17 103.53,-166.45 110.63,-174.31 113.99,-168.17" style=""/>
<text text-anchor="middle" x="181.54" y="-189.81" font-family="Times,serif" font-size="14.00" style="">ReLU</text>
</g>
<!-- h3 -->
<g id="node4" class="node" pointer-events="visible" data-name="h3">

<ellipse fill="lightslategrey" stroke="lightslategrey" cx="245.19" cy="-142.3" rx="53.25" ry="41.09" style=""/>
<text text-anchor="middle" x="245.19" y="-154.9" font-family="Times,serif" font-size="14.00" style="">Hidden</text>
<text text-anchor="middle" x="245.19" y="-138.1" font-family="Times,serif" font-size="14.00" style="">Linear</text>
<text text-anchor="middle" x="245.19" y="-121.3" font-family="Times,serif" font-size="14.00" style="">(64 nodes)</text>
</g>
<!-- h2&#45;&gt;h3 -->
<g id="edge3" class="edge" data-name="h2-&gt;h3">

<path fill="none" stroke="black" d="M111.81,-142.3C133.08,-142.3 157.85,-142.3 180.16,-142.3" style=""/>
<polygon fill="black" stroke="black" points="180.07,-145.8 190.07,-142.3 180.07,-138.8 180.07,-145.8" style=""/>
<text text-anchor="middle" x="151.76" y="-146.5" font-family="Times,serif" font-size="14.00" style="">ReLU</text>
</g>
<!-- h4 -->
<g id="node5" class="node" pointer-events="visible" data-name="h4">

<ellipse fill="lightslategrey" stroke="lightslategrey" cx="58.33" cy="-41.3" rx="53.25" ry="41.09" style=""/>
<text text-anchor="middle" x="58.33" y="-53.9" font-family="Times,serif" font-size="14.00" style="">Hidden</text>
<text text-anchor="middle" x="58.33" y="-37.1" font-family="Times,serif" font-size="14.00" style="">Linear</text>
<text text-anchor="middle" x="58.33" y="-20.3" font-family="Times,serif" font-size="14.00" style="">(32 nodes)</text>
</g>
<!-- h3&#45;&gt;h4 -->
<g id="edge4" class="edge" data-name="h3-&gt;h4">

<path fill="none" stroke="black" d="M201.23,-118.82C174.71,-104.33 140.48,-85.63 112.29,-70.23" style=""/>
<polygon fill="black" stroke="black" points="113.99,-67.17 103.53,-65.45 110.63,-73.31 113.99,-67.17" style=""/>
<text text-anchor="middle" x="184.12" y="-90.22" font-family="Times,serif" font-size="14.00" style="">ReLU</text>
</g>
<!-- h5 -->
<g id="node6" class="node" pointer-events="visible" data-name="h5">

<ellipse fill="lightsalmon" stroke="lightsalmon" cx="245.19" cy="-41.3" rx="53.25" ry="41.09" style=""/>
<text text-anchor="middle" x="245.19" y="-53.9" font-family="Times,serif" font-size="14.00" style="">Output</text>
<text text-anchor="middle" x="245.19" y="-37.1" font-family="Times,serif" font-size="14.00" style="">Linear</text>
<text text-anchor="middle" x="245.19" y="-20.3" font-family="Times,serif" font-size="14.00" style="">(18 nodes)</text>
</g>
<!-- h4&#45;&gt;h5 -->
<g id="edge5" class="edge" data-name="h4-&gt;h5">

<path fill="none" stroke="black" d="M111.81,-41.3C133.08,-41.3 157.85,-41.3 180.16,-41.3" style=""/>
<polygon fill="black" stroke="black" points="180.07,-44.8 190.07,-41.3 180.07,-37.8 180.07,-44.8" style=""/>
<text text-anchor="middle" x="151.76" y="-45.5" font-family="Times,serif" font-size="14.00" style="">ReLU</text>
</g>
</g>
</svg>